classDiagram
Class01~T~ <|-- AveryLongClass : Cool
<<interface>> Class01
Class03~T~ "0" *-- "0..n" Class04
Class05 "1" o-- "many" Class06
Class07~T~ .. Class08
Class09 "many" --> "1" C2 : Where am i?
  Class09 "0" --* "1..n" C3
  Class09 --|> Class07
  Class07 : equals()
  Class07 : Object[] elementData
  Class01 : #size()
  Class01 : -int chimp
  Class01 : +int gorilla
  Class08 <--> C2: Cool label
    class Class10 {
    <<service>>
    int id
    size()
    }